<svg xmlns="http://www.w3.org/2000/svg" version="1.1" width="500px" height="500px" style="shape-rendering:geometricPrecision; text-rendering:geometricPrecision; image-rendering:optimizeQuality; fill-rule:evenodd; clip-rule:evenodd" xmlns:xlink="http://www.w3.org/1999/xlink">
    <g><path style="opacity:1" fill="#000" d="M -0.5,-0.5 C 166.167,-0.5 332.833,-0.5 499.5,-0.5C 499.5,166.167 499.5,332.833 499.5,499.5C 332.833,499.5 166.167,499.5 -0.5,499.5C -0.5,332.833 -0.5,166.167 -0.5,-0.5 Z"/></g>
    <g><path style="opacity:1" fill="#ee6c4d" d="M 259.5,274.5 C 240.662,273.172 221.662,273.172 202.5,274.5C 202.624,275.107 202.957,275.44 203.5,275.5C 210.758,301.189 223.091,324.023 240.5,344C 202.835,344.5 165.168,344.667 127.5,344.5C 127.098,328.479 129.265,312.812 134,297.5C 149.134,249.9 171.134,205.9 200,165.5C 206.756,156.972 213.256,148.305 219.5,139.5C 216.183,126.042 211.016,113.375 204,101.5C 199.448,95.1414 193.282,91.808 185.5,91.5C 185.5,88.1667 185.5,84.8333 185.5,81.5C 226.952,80.8213 262.119,95.1546 291,124.5C 302.473,137.765 311.139,152.765 317,169.5C 327.004,204.172 337.004,238.839 347,273.5C 350.502,284.836 354.835,295.836 360,306.5C 371.018,321.854 383.851,323.521 398.5,311.5C 401.874,313.331 403.707,315.997 404,319.5C 385.803,340.86 362.636,349.694 334.5,346C 315.356,342.513 299.19,333.68 286,319.5C 274.579,305.986 265.745,290.986 259.5,274.5 Z"/></g>
    <g><path style="opacity:1" fill="#000" d="M 222.5,151.5 C 224.129,153.858 225.295,156.524 226,159.5C 235.857,194.263 246.024,228.93 256.5,263.5C 237.512,264.5 218.512,264.833 199.5,264.5C 194.058,243.003 193.224,221.336 197,199.5C 198.738,192.618 201.072,185.952 204,179.5C 209.929,169.967 216.095,160.633 222.5,151.5 Z"/></g>
    <g><path style="opacity:1" fill="#000" d="M 259.5,274.5 C 240.659,274.17 221.993,274.503 203.5,275.5C 202.957,275.44 202.624,275.107 202.5,274.5C 221.662,273.172 240.662,273.172 259.5,274.5 Z"/></g>
</svg>
